<?xml version="1.1" encoding="UTF-8"?>
<!--The icon of The Powder Toy, Cracker1000's Mod-->
<!--Created by Cracker1000, The Xphere-->
<svg version="2.0" viewBox="0 0 256 256" xmlns="http://www.w3.org/2000/svg">
	<mask id="mask0_641_271" style="mask-type:alpha" maskUnits="userSpaceOnUse" x="0" y="0" width="256" height="256">
		<circle cx="128" cy="128" r="128" fill="black"/>
	</mask>
	<g mask="url(#mask0_641_271)">
		<path d="M128 256C57.3075 256 0 198.692 0 128C0 57.3075 57.3075 0 128 0C198.692 0 256 57.3075 256 128C256 198.692 198.692 256 128 256Z" fill="url(#paint0_linear_641_271)"/>
		<g filter="url(#filter0_d_641_271)">
			<path d="M131.402 73.4494C131.402 75.3544 129.879 76.8987 128 76.8987C126.121 76.8987 124.598 75.3544 124.598 73.4494C124.598 71.5443 126.121 70 128 70C129.879 70 131.402 71.5443 131.402 73.4494Z" fill="#BF7FFF"/>
			<path d="M128 83.7975C129.879 83.7975 131.402 85.3418 131.402 87.2468V94.1456C131.402 96.0506 129.879 97.5949 128 97.5949C126.121 97.5949 124.598 96.0506 124.598 94.1456V87.2468C124.598 85.3418 126.121 83.7975 128 83.7975Z" fill="#BF7FFF"/>
			<path d="M128 111.392C126.121 111.392 124.598 109.848 124.598 107.943C124.598 106.038 126.121 104.494 128 104.494C129.879 104.494 131.402 106.038 131.402 107.943C131.402 109.848 129.879 111.392 128 111.392Z" fill="#BF7FFF"/>
			<path d="M139.762 93.0418C140.171 92.8702 140.609 92.7818 141.051 92.7819C141.493 92.7818 141.931 92.8702 142.34 93.0418C142.749 93.2134 143.12 93.4649 143.433 93.782C143.746 94.0991 143.994 94.4756 144.163 94.8899C144.332 95.3042 144.419 95.7483 144.419 96.1967C144.419 97.1024 144.064 97.9709 143.433 98.6113C142.801 99.2517 141.944 99.6114 141.051 99.6114C140.158 99.6114 139.301 99.2516 138.67 98.6113C138.038 97.9709 137.683 97.1024 137.683 96.1967C137.683 95.7483 137.77 95.3042 137.939 94.8899C138.109 94.4756 138.357 94.0991 138.67 93.782C138.982 93.4649 139.354 93.2134 139.762 93.0418Z" fill="#BF7FFF"/>
			<path d="M108.049 105.104C108.681 104.463 109.537 104.104 110.43 104.104C111.324 104.104 112.18 104.463 112.812 105.104C113.444 105.744 113.798 106.613 113.798 107.518C113.799 107.967 113.711 108.411 113.542 108.825C113.373 109.24 113.125 109.616 112.812 109.933C112.499 110.25 112.128 110.502 111.719 110.673C111.311 110.845 110.873 110.933 110.43 110.933C109.988 110.933 109.55 110.845 109.142 110.673C108.733 110.502 108.362 110.25 108.049 109.933C107.736 109.616 107.488 109.24 107.319 108.825C107.15 108.411 107.062 107.967 107.062 107.518C107.062 106.613 107.417 105.744 108.049 105.104Z" fill="#BF7FFF"/>
			<path d="M123.587 119.911C124.735 118.747 126.285 118.083 127.908 118.059C129.595 118.034 131.219 118.702 132.413 119.911L171.161 159.198C175.09 163.185 172.307 169.998 166.748 170H89.2515C83.693 169.998 80.91 163.184 84.8393 159.198L123.587 119.911ZM128.933 122.366C128.716 122.323 128.496 122.301 128.275 122.301C127.406 122.301 126.537 122.637 125.873 123.31L117.748 131.548C116.422 132.893 116.422 135.074 117.748 136.419C119.075 137.764 121.226 137.764 122.552 136.419L128.351 130.539L162.91 165.579C164.237 166.924 166.387 166.924 167.714 165.579C169.04 164.234 169.04 162.054 167.714 160.709L130.859 123.341C130.317 122.791 129.638 122.467 128.933 122.366ZM114.158 139.525C113.526 138.884 112.67 138.525 111.776 138.525C110.883 138.524 110.027 138.884 109.395 139.525C108.763 140.165 108.408 141.034 108.408 141.939C108.408 142.388 108.495 142.832 108.665 143.246C108.834 143.66 109.082 144.037 109.395 144.354C109.708 144.671 110.079 144.923 110.487 145.094C110.896 145.266 111.334 145.354 111.776 145.354C112.67 145.354 113.526 144.994 114.158 144.354C114.789 143.713 115.144 142.845 115.144 141.939C115.144 141.034 114.789 140.165 114.158 139.525ZM100.655 152.487C100.023 151.847 99.1665 151.487 98.2733 151.487C97.3801 151.487 96.5235 151.847 95.892 152.487C95.2604 153.128 94.9056 153.996 94.9056 154.902C94.9055 155.808 95.2603 156.676 95.8919 157.317C96.5235 157.957 97.3801 158.317 98.2733 158.317C98.7156 158.317 99.1536 158.229 99.5622 158.057C99.9708 157.885 100.342 157.634 100.655 157.317C100.968 157 101.216 156.623 101.385 156.209C101.554 155.794 101.641 155.35 101.641 154.902C101.641 153.996 101.286 153.128 100.655 152.487Z" fill="#BF7FFF"/>
			<path d="M153.041 123.946C153.673 123.305 154.529 122.945 155.422 122.945C155.865 122.945 156.303 123.034 156.711 123.205C157.12 123.377 157.491 123.628 157.804 123.945C158.117 124.263 158.365 124.639 158.534 125.053C158.703 125.468 158.79 125.912 158.79 126.36C158.79 127.266 158.436 128.134 157.804 128.775C157.172 129.415 156.316 129.775 155.422 129.775C154.529 129.775 153.673 129.415 153.041 128.775C152.41 128.134 152.055 127.266 152.055 126.36C152.055 125.454 152.409 124.586 153.041 123.946Z" fill="#BF7FFF"/>
			<path d="M97.1893 129.448C97.598 129.277 98.0359 129.188 98.4782 129.188C99.3715 129.188 100.228 129.548 100.86 130.188C101.491 130.829 101.846 131.697 101.846 132.603C101.846 133.509 101.491 134.377 100.86 135.018C100.228 135.658 99.3714 136.018 98.4782 136.018C97.585 136.018 96.7284 135.658 96.0967 135.018C95.4651 134.377 95.1103 133.509 95.1102 132.603C95.1102 132.155 95.1973 131.711 95.3666 131.296C95.5358 130.882 95.7839 130.506 96.0967 130.188C96.4094 129.871 96.7807 129.62 97.1893 129.448Z" fill="#BF7FFF"/>
		</g>
		<g filter="url(#filter1_d_641_271)">
			<path d="M60.1177 60.1178C22.6274 97.6081 22.6274 158.392 60.1177 195.882C97.6081 233.373 158.392 233.373 195.882 195.882C202.131 189.634 212.261 189.634 218.51 195.882C224.758 202.131 224.758 212.261 218.51 218.51C168.523 268.497 87.4774 268.497 37.4903 218.51C-12.4968 168.523 -12.4968 87.4774 37.4903 37.4903C87.4774 -12.4968 168.523 -12.4968 218.51 37.4903C224.758 43.7387 224.758 53.8694 218.51 60.1178C212.261 66.3661 202.131 66.3661 195.882 60.1178C158.392 22.6274 97.6081 22.6274 60.1177 60.1178Z" fill="url(#paint1_linear_641_271)"/>
		</g>
		<path d="M215.681 40.3188C167.256 -8.10625 88.7438 -8.10625 40.3188 40.3188C-8.10626 88.7438 -8.10626 167.256 40.3188 215.681L37.4903 218.51C-12.4968 168.523 -12.4968 87.4774 37.4903 37.4903C87.4774 -12.4968 168.523 -12.4968 218.51 37.4903L215.681 40.3188Z" fill="url(#paint2_linear_641_271)" fill-opacity="0.125"/>
	</g>
	<defs>
		<filter id="filter0_d_641_271" x="67" y="54" width="122" height="132" filterUnits="userSpaceOnUse" color-interpolation-filters="sRGB">
			<feFlood flood-opacity="0" result="BackgroundImageFix"/>
			<feColorMatrix in="SourceAlpha" type="matrix" values="0 0 0 0 0 0 0 0 0 0 0 0 0 0 0 0 0 0 127 0" result="hardAlpha"/>
			<feOffset/>
			<feGaussianBlur stdDeviation="8"/>
			<feComposite in2="hardAlpha" operator="out"/>
			<feColorMatrix type="matrix" values="0 0 0 0 0 0 0 0 0 0 0 0 0 0 0 0 0 0 0.5 0"/>
			<feBlend mode="normal" in2="BackgroundImageFix" result="effect1_dropShadow_641_271"/>
			<feBlend mode="normal" in="SourceGraphic" in2="effect1_dropShadow_641_271" result="shape"/>
		</filter>
		<filter id="filter1_d_641_271" x="-16" y="-16" width="255.196" height="288" filterUnits="userSpaceOnUse" color-interpolation-filters="sRGB">
			<feFlood flood-opacity="0" result="BackgroundImageFix"/>
			<feColorMatrix in="SourceAlpha" type="matrix" values="0 0 0 0 0 0 0 0 0 0 0 0 0 0 0 0 0 0 127 0" result="hardAlpha"/>
			<feOffset/>
			<feGaussianBlur stdDeviation="8"/>
			<feComposite in2="hardAlpha" operator="out"/>
			<feColorMatrix type="matrix" values="0 0 0 0 0 0 0 0 0 0 0 0 0 0 0 0 0 0 0.25 0"/>
			<feBlend mode="normal" in2="BackgroundImageFix" result="effect1_dropShadow_641_271"/>
			<feBlend mode="normal" in="SourceGraphic" in2="effect1_dropShadow_641_271" result="shape"/>
		</filter>
		<linearGradient id="paint0_linear_641_271" x1="37.4903" y1="37.4903" x2="218.51" y2="218.51" gradientUnits="userSpaceOnUse">
			<stop stop-color="#3F3F3F"/>
			<stop offset="1" stop-color="#1F1F1F"/>
		</linearGradient>
		<linearGradient id="paint1_linear_641_271" x1="37.4903" y1="37.4903" x2="218.51" y2="218.51" gradientUnits="userSpaceOnUse">
			<stop stop-color="#EFEFEF"/>
			<stop offset="1" stop-color="#BFBFBF"/>
		</linearGradient>
		<linearGradient id="paint2_linear_641_271" x1="37.4903" y1="37.4904" x2="128" y2="128" gradientUnits="userSpaceOnUse">
			<stop/>
			<stop offset="1" stop-opacity="0"/>
		</linearGradient>
	</defs>
</svg>
